<?xml version="1.0" encoding="UTF-8"?>
<svg version="1.1" xmlns="http://www.w3.org/2000/svg" width="64" height="64">
<path d="M0 0 C3.0625 1.875 3.0625 1.875 5 5 C5.40008052 8.44806242 5.23287034 11.50694488 5 15 C8.3 15 11.6 15 15 15 C15 19.29 15 23.58 15 28 C22.92 28 30.84 28 39 28 C39 39.55 39 51.1 39 63 C18.54 63 -1.92 63 -23 63 C-23 47.16 -23 31.32 -23 15 C-20.03 15 -17.06 15 -14 15 C-14.04125 13.5975 -14.0825 12.195 -14.125 10.75 C-14.22816226 7.24248328 -13.9218631 4.97825143 -12 2 C-7.96061664 -0.69292224 -4.74197224 -0.77233523 0 0 Z M-9.375 4.5 C-11.73613198 8.13251074 -11.2854378 10.71843297 -11 15 C-6.71 15 -2.42 15 2 15 C2.061875 13.576875 2.12375 12.15375 2.1875 10.6875 C2.22230469 9.88699219 2.25710937 9.08648437 2.29296875 8.26171875 C2.18118839 5.93858043 2.18118839 5.93858043 0.671875 4.234375 C-2.72250207 1.72824613 -5.97214192 2.35082647 -9.375 4.5 Z " fill="#FD6D55" transform="translate(24,0)"/>
<path d="M0 0 C3.0625 1.875 3.0625 1.875 5 5 C5.40008052 8.44806242 5.23287034 11.50694488 5 15 C8.3 15 11.6 15 15 15 C15 19.29 15 23.58 15 28 C8.4 28 1.8 28 -5 28 C-5 39.55 -5 51.1 -5 63 C-10.94 63 -16.88 63 -23 63 C-23 47.16 -23 31.32 -23 15 C-20.03 15 -17.06 15 -14 15 C-14.04125 13.5975 -14.0825 12.195 -14.125 10.75 C-14.22816226 7.24248328 -13.9218631 4.97825143 -12 2 C-7.96061664 -0.69292224 -4.74197224 -0.77233523 0 0 Z M-9.375 4.5 C-11.73613198 8.13251074 -11.2854378 10.71843297 -11 15 C-6.71 15 -2.42 15 2 15 C2.061875 13.576875 2.12375 12.15375 2.1875 10.6875 C2.22230469 9.88699219 2.25710937 9.08648437 2.29296875 8.26171875 C2.18118839 5.93858043 2.18118839 5.93858043 0.671875 4.234375 C-2.72250207 1.72824613 -5.97214192 2.35082647 -9.375 4.5 Z " fill="#FEC060" transform="translate(24,0)"/>
<path d="M0 0 C1.98 0 3.96 0 6 0 C6.01458252 1.26183105 6.02916504 2.52366211 6.04418945 3.82373047 C6.10205329 8.49426979 6.17928617 13.16432092 6.26245117 17.83447266 C6.29575679 19.85782971 6.323771 21.88128093 6.34643555 23.90478516 C6.37987835 26.80932852 6.43218769 29.71300442 6.48828125 32.6171875 C6.49467117 33.52556366 6.5010611 34.43393982 6.50764465 35.36984253 C6.52743881 36.21056305 6.54723297 37.05128357 6.56762695 37.91748047 C6.57873001 38.65916473 6.58983307 39.400849 6.60127258 40.16500854 C6.86719253 42.41361836 6.86719253 42.41361836 10 44 C12.31 44.33 14.62 44.66 17 45 C17 34.44 17 23.88 17 13 C17.33 13 17.66 13 18 13 C18 24.55 18 36.1 18 48 C12.06 48 6.12 48 0 48 C0 32.16 0 16.32 0 0 Z " fill="#FEAE46" transform="translate(1,15)"/>
<path d="M0 0 C1.65 0 3.3 0 5 0 C5.0093457 0.79696289 5.01869141 1.59392578 5.02832031 2.41503906 C5.08201498 6.02732175 5.16566608 9.63830821 5.25 13.25 C5.26417969 14.50425781 5.27835938 15.75851563 5.29296875 17.05078125 C5.32519531 18.25605469 5.35742188 19.46132813 5.390625 20.703125 C5.4220459 22.36843262 5.4220459 22.36843262 5.45410156 24.06738281 C5.81283387 27.04650164 5.81283387 27.04650164 7.54882812 29.35546875 C10.89873493 31.60297595 13.92345325 31.60274014 17.828125 31.609375 C18.95163361 31.63417938 18.95163361 31.63417938 20.09783936 31.65948486 C22.48197654 31.7079351 24.86547611 31.72932772 27.25 31.75 C28.86982369 31.7781624 30.48961772 31.80809022 32.109375 31.83984375 C36.07286414 31.91369244 40.03599998 31.96328457 44 32 C44 32.99 44 33.98 44 35 C29.48 35 14.96 35 0 35 C0 23.45 0 11.9 0 0 Z " fill="#EE6147" transform="translate(19,28)"/>
<path d="M0 0 C1.12535156 -0.05994141 1.12535156 -0.05994141 2.2734375 -0.12109375 C5.96043709 0.75472177 7.36321211 2.44522103 9.625 5.4375 C10.33450524 8.21414874 10.41452463 10.89339621 10.4375 13.75 C10.46263672 14.49056641 10.48777344 15.23113281 10.51367188 15.99414062 C10.57218443 17.80802969 10.60154349 19.62281903 10.625 21.4375 C9.305 21.4375 7.985 21.4375 6.625 21.4375 C6.57601563 20.37789062 6.52703125 19.31828125 6.4765625 18.2265625 C6.40153291 16.83851503 6.32598515 15.45049549 6.25 14.0625 C6.2190625 13.36382812 6.188125 12.66515625 6.15625 11.9453125 C6.03000502 7.73564173 6.03000502 7.73564173 3.625 4.4375 C-0.41366181 3.96014108 -0.41366181 3.96014108 -3.9921875 5.5703125 C-5.90985336 8.15970312 -6.11915089 10.4533487 -6.5625 13.625 C-6.72105469 14.71167969 -6.87960938 15.79835938 -7.04296875 16.91796875 C-7.15253906 17.74941406 -7.26210937 18.58085937 -7.375 19.4375 C-6.715 19.4375 -6.055 19.4375 -5.375 19.4375 C-5.375 20.0975 -5.375 20.7575 -5.375 21.4375 C-7.025 21.4375 -8.675 21.4375 -10.375 21.4375 C-10.26073491 19.01989124 -10.13400339 16.60402782 -10 14.1875 C-9.9690625 13.50558594 -9.938125 12.82367188 -9.90625 12.12109375 C-9.69380512 8.47412334 -9.50109197 5.47477425 -7.375 2.4375 C-4.35292605 0.42278403 -3.45773301 0.10030966 0 0 Z " fill="#51454D" transform="translate(19.375,-0.4375)"/>
<path d="M0 0 C1.32 0 2.64 0 4 0 C3.938125 1.093125 3.87625 2.18625 3.8125 3.3125 C3.7099594 6.8407519 3.7099594 6.8407519 5.125 8.9375 C7.92162472 10.52225401 9.8493196 10.45947423 13 10 C15.0785608 8.42304368 15.0785608 8.42304368 16 6 C15.77802187 3.3015411 15.77802187 3.3015411 15 1 C16.65 0.67 18.3 0.34 20 0 C19.35201601 4.52621655 18.83374079 8.02333222 15.8125 11.5625 C12.14192918 13.43856953 10.06827158 13.72647707 6 13 C2.09237871 9.35288679 0.36777702 6.22242133 -1 1 C-0.67 0.67 -0.34 0.34 0 0 Z " fill="#664A4F" transform="translate(31,32)"/>
<path d="M0 0 C1.32 0 2.64 0 4 0 C3.67 1.98 3.34 3.96 3 6 C2.34 6 1.68 6 1 6 C0.34 4.35 -0.32 2.7 -1 1 C-0.67 0.67 -0.34 0.34 0 0 Z " fill="#764D4F" transform="translate(47,32)"/>
<path d="M0 0 C0.66 0.33 1.32 0.66 2 1 C2 1.99 2 2.98 2 4 C2.66 4 3.32 4 4 4 C4 4.66 4 5.32 4 6 C2.35 6 0.7 6 -1 6 C-0.67 4.02 -0.34 2.04 0 0 Z " fill="#6C5850" transform="translate(10,15)"/>
</svg>
